<svg width="128" height="71" viewBox="0 0 128 71" fill="none" xmlns="http://www.w3.org/2000/svg">
<path d="M106.293 44.0323V67.0323C106.293 68.6713 104.964 70 103.325 70H3.90588C2.26684 70 0.938137 68.6713 0.938137 67.0323V3.96774C0.938137 2.3287 2.26684 1 3.90588 1L103.325 1C104.964 1 106.293 2.3287 106.293 3.96774V35.129" stroke="#8C8A84" stroke-width="1.48387"/>
<line x1="0.932617" y1="12.8814" x2="106.298" y2="12.8814" stroke="#8C8A84" stroke-width="1.48387"/>
<path d="M5.38965 6.93555H6.87352" stroke="#8C8A84" stroke-width="1.48387" stroke-linecap="round"/>
<path d="M9.8418 6.93555H11.3257" stroke="#8C8A84" stroke-width="1.48387" stroke-linecap="round"/>
<path d="M14.293 6.93555H15.7768" stroke="#8C8A84" stroke-width="1.48387" stroke-linecap="round"/>
<path d="M87.0029 38.8386C86.5932 38.8386 86.261 39.1708 86.261 39.5806C86.261 39.9903 86.5932 40.3225 87.0029 40.3225V38.8386ZM127.592 40.1052C127.882 39.8155 127.882 39.3457 127.592 39.0559L122.87 34.3343C122.581 34.0445 122.111 34.0445 121.821 34.3343C121.531 34.624 121.531 35.0938 121.821 35.3835L126.018 39.5806L121.821 43.7776C121.531 44.0673 121.531 44.5371 121.821 44.8268C122.111 45.1166 122.581 45.1166 122.87 44.8268L127.592 40.1052ZM87.0029 40.3225H127.067V38.8386H87.0029V40.3225Z" fill="#8C8A84"/>
</svg>
