<svg width="38" height="25" viewBox="0 0 38 25" fill="none" xmlns="http://www.w3.org/2000/svg">
<g clip-path="url(#clip0_265_1961)">
<path d="M34.5 1H3.5C1.84315 1 0.5 2.34315 0.5 4V21C0.5 22.6569 1.84315 24 3.5 24H34.5C36.1569 24 37.5 22.6569 37.5 21V4C37.5 2.34315 36.1569 1 34.5 1Z" fill="white" stroke="black" stroke-opacity="0.07"/>
<path fill-rule="evenodd" clip-rule="evenodd" d="M32 16.27L34 8.85999L36 12.68L32 16.27Z" fill="#097A44"/>
<path fill-rule="evenodd" clip-rule="evenodd" d="M30.7598 16.29L32.7598 8.89001L34.7598 12.71L30.7598 16.29Z" fill="#F46F20"/>
<path fill-rule="evenodd" clip-rule="evenodd" d="M20.67 8.7C20.4651 8.50057 20.2198 8.34739 19.9507 8.25079C19.6816 8.15419 19.3949 8.11641 19.11 8.14H16.11L14.16 14.95H15.91L16.57 12.64H17.8C18.4687 12.6639 19.1297 12.49 19.7 12.14C20.2685 11.7205 20.6663 11.1096 20.82 10.42C20.9439 10.1443 20.9952 9.84155 20.9689 9.54047C20.9427 9.23938 20.8398 8.95004 20.67 8.7ZM17.46 9.64H18.58C18.7759 9.61674 18.9731 9.67053 19.13 9.79C19.24 9.9 19.2 10.14 19.13 10.32C19.0736 10.5672 18.932 10.7867 18.73 10.94C18.5227 11.0769 18.2783 11.1468 18.03 11.14H17L17.46 9.64ZM9.14 9.5C9.11417 9.28547 9.0462 9.07817 8.94 8.89C8.80596 8.65774 8.60337 8.47262 8.36 8.36C8.0157 8.22821 7.64843 8.167 7.28 8.18H4L2 14.93H3.73L4.45 12.41H5.7C6.17 12.41 6.28 12.51 6.3 12.54C6.32 12.57 6.39 12.69 6.3 13.19L6.14 13.79C6.08575 13.983 6.04894 14.1804 6.03 14.38V14.93H7.82L7.94 14.5L7.83 14.42C7.83 14.42 7.76 14.37 7.77 14.22C7.797 14.03 7.84 13.843 7.9 13.66L8 13.24C8.13079 12.8853 8.16529 12.5023 8.1 12.13C8.05349 11.9717 7.9634 11.8296 7.84 11.72C8.10348 11.592 8.33562 11.4076 8.52 11.18C8.76313 10.8864 8.94351 10.546 9.05 10.18C9.12 9.96 9.151 9.73 9.14 9.5ZM7.28 10.33C7.25148 10.463 7.19107 10.5871 7.10397 10.6916C7.01688 10.7962 6.9057 10.878 6.78 10.93C6.57389 10.9986 6.35703 11.0291 6.14 11.02H4.86L5.24 9.69H6.67C6.85139 9.6757 7.0335 9.70662 7.2 9.78C7.25 9.78 7.41 9.85 7.28 10.28V10.33ZM12.18 12.5C12.1199 12.7391 12.0184 12.9659 11.88 13.17C11.7834 13.3096 11.6529 13.4224 11.5007 13.4976C11.3484 13.5728 11.1796 13.6081 11.01 13.6C10.67 13.6 10.65 13.46 10.63 13.4C10.616 13.2237 10.6398 13.0464 10.7 12.88L11.59 9.77H9.9L9.04 12.77C8.89198 13.1933 8.84072 13.6443 8.89 14.09C8.97 14.51 9.29 15 10.3 15C10.547 15.004 10.793 14.97 11.03 14.9C11.242 14.8304 11.4438 14.7329 11.63 14.61L11.55 14.91H13.17L14.64 9.78H13L12.18 12.5ZM25.11 13.6L25.74 11.42C25.98 10.59 25.67 10.21 25.37 10.03C24.9497 9.80287 24.4776 9.68914 24 9.7C23.2711 9.66415 22.556 9.9073 22 10.38C21.6855 10.6863 21.4489 11.0635 21.31 11.48L21.22 11.74H22.83V11.63C22.8884 11.4915 22.9733 11.3658 23.08 11.26C23.2403 11.138 23.439 11.0777 23.64 11.09C23.7977 11.0753 23.9565 11.1029 24.1 11.17V11.35C24.1 11.41 24.1 11.5 23.85 11.58C23.6944 11.6317 23.5333 11.6653 23.37 11.68L22.93 11.73C22.4988 11.7683 22.0766 11.8764 21.68 12.05C21.11 12.321 20.69 12.83 20.53 13.44C20.4506 13.6407 20.4245 13.8586 20.4543 14.0724C20.4841 14.2862 20.5687 14.4886 20.7 14.66C20.989 14.967 21.4 15.128 21.82 15.1C22.1911 15.0995 22.5571 15.0139 22.89 14.85L23.29 14.62V14.95H25L25.13 14.47L25 14.4C24.9867 14.3273 24.9867 14.2527 25 14.18C25 13.93 25.07 13.75 25.11 13.6ZM22.19 13.5C22.214 13.4125 22.2568 13.3314 22.3156 13.2622C22.3743 13.1931 22.4475 13.1377 22.53 13.1C22.7123 13.0243 22.9041 12.9738 23.1 12.95L23.39 12.9L23.69 12.83V12.9C23.6208 13.2054 23.4386 13.4734 23.18 13.65C22.9628 13.7824 22.7143 13.8548 22.46 13.86C22.4151 13.8639 22.3699 13.8588 22.327 13.8451C22.2841 13.8314 22.2443 13.8092 22.21 13.78C22.1792 13.69 22.1723 13.5935 22.19 13.5ZM30.1 9.82L28.41 12.82V9.82H26.61L27 14.95L26.88 15.14C26.8221 15.2388 26.7437 15.3241 26.65 15.39C26.5761 15.4324 26.4945 15.4596 26.41 15.47H25.73L25.34 16.84H26.17C26.6262 16.8776 27.0816 16.7576 27.46 16.5C27.9458 15.9791 28.3718 15.4056 28.73 14.79L31.9 9.79L30.1 9.82Z" fill="#302F82"/>
</g>
<defs>
<clipPath id="clip0_265_1961">
<rect width="38" height="24" fill="white" transform="translate(0 0.5)"/>
</clipPath>
</defs>
</svg>
