<svg width="38" height="25" viewBox="0 0 38 25" fill="none" xmlns="http://www.w3.org/2000/svg">
<g clip-path="url(#clip0_265_1977)">
<path opacity="0.07" d="M35 0.5H3C1.3 0.5 0 1.8 0 3.5V21.5C0 23.2 1.4 24.5 3 24.5H35C36.7 24.5 38 23.2 38 21.5V3.5C38 1.8 36.6 0.5 35 0.5Z" fill="black"/>
<path d="M35 1.5C36.1 1.5 37 2.4 37 3.5V21.5C37 22.6 36.1 23.5 35 23.5H3C1.9 23.5 1 22.6 1 21.5V3.5C1 2.4 1.9 1.5 3 1.5H35Z" fill="white"/>
<path d="M30.2969 17.6602L34.832 12.4336L32.6836 7.02734L30.2969 17.6602Z" fill="#097939"/>
<path d="M28.7695 17.6602L33.3047 12.4336L31.1562 7.02734L28.7695 17.6602Z" fill="#ED752E"/>
<path d="M7.0978 7.0898L5.18765 15.6796L11.965 15.7382L13.8283 7.0898H15.547L13.3126 17.1445C13.2267 17.5273 12.9025 17.8398 12.5861 17.8398H3.89858C3.37124 17.8398 3.05874 17.3203 3.20327 16.6796L5.33218 7.0898H7.0978ZM28.0548 7.0273H29.7736L27.3869 17.8398H25.6173L28.0548 7.0273ZM15.7384 11.5312L24.3322 11.4726L24.9025 9.19136H16.1681L16.6916 7.0859L26.0041 6.98043C26.5822 6.97261 26.9259 7.53902 26.7736 8.24605L25.8986 12.2968C25.7423 13.0039 25.1486 13.5742 24.5705 13.5742H16.883L15.9767 18.0195H14.3048L15.7384 11.5312Z" fill="#747474"/>
</g>
<defs>
<clipPath id="clip0_265_1977">
<rect width="38" height="24" fill="white" transform="translate(0 0.5)"/>
</clipPath>
</defs>
</svg>
