<svg width="31" height="30" viewBox="0 0 31 30" fill="none" xmlns="http://www.w3.org/2000/svg">
<path d="M26.4542 4.50159H23.0576V2.96118C23.0576 1.82858 22.1461 0.917114 21.0135 0.917114C19.8809 0.917114 18.9695 1.82858 18.9695 2.96118V4.50159H17.6796V2.96118C17.6796 1.82858 16.7682 0.917114 15.6356 0.917114C14.503 0.917114 13.5915 1.82858 13.5915 2.96118V4.50159H12.3017V2.96118C12.3017 1.82858 11.3902 0.917114 10.2576 0.917114C9.12499 0.917114 8.21353 1.82858 8.21353 2.96118V4.50159H4.94459C2.58605 4.50159 0.699219 6.42037 0.699219 8.74696V25.0369C0.699219 27.3955 2.618 29.2823 4.94459 29.2823H26.4538C28.8124 29.2823 30.6992 27.3635 30.6992 25.0369V8.74696C30.6992 6.38842 28.8124 4.50159 26.4538 4.50159H26.4542ZM19.9767 2.92923C19.9767 2.33224 20.4484 1.86053 21.0454 1.86053C21.6424 1.86053 22.1141 2.33224 22.1141 2.92923V4.46964H19.9755L19.9767 2.92923ZM14.6307 2.92923C14.6307 2.33224 15.1024 1.86053 15.6994 1.86053C16.2964 1.86053 16.7681 2.33224 16.7681 2.92923V4.46964H14.6294L14.6307 2.92923ZM9.28468 2.92923C9.28468 2.33224 9.75639 1.86053 10.3534 1.86053C10.9504 1.86053 11.4221 2.33224 11.4221 2.92923V4.46964H9.28342L9.28468 2.92923ZM4.94465 5.44501H8.34127V6.23119C8.34127 7.36379 9.25273 8.27526 10.3853 8.27526C10.6372 8.27526 10.857 8.05537 10.857 7.80355C10.857 7.55173 10.6372 7.33184 10.3853 7.33184C9.78834 7.33184 9.31663 6.86013 9.31663 6.26314V5.47696H13.6872V6.26314C13.6872 7.39574 14.5986 8.30721 15.7312 8.30721C15.9831 8.30721 16.2029 8.08732 16.2029 7.8355C16.2029 7.58368 15.9831 7.36379 15.7312 7.36379C15.1342 7.36379 14.6625 6.89208 14.6625 6.29509V5.50891H19.0331V6.29509C19.0331 7.42769 19.9445 8.33916 21.0771 8.33916C21.329 8.33916 21.5488 8.11927 21.5488 7.86745C21.5488 7.61563 21.329 7.39574 21.0771 7.39574C20.4801 7.39574 20.0084 6.92403 20.0084 6.32704V5.54086H26.4872C28.3114 5.54086 29.7891 7.01863 29.7891 8.84281V10.4152L1.64263 10.4139V8.84159C1.64263 6.9228 3.12046 5.44501 4.94465 5.44501ZM26.4539 28.3389H4.94465C3.12046 28.3389 1.6427 26.8611 1.6427 25.0369V11.2627H29.7559V25.0369C29.7559 26.8599 28.2781 28.3389 26.4539 28.3389Z" fill="black"/>
</svg>
