<svg width="31" height="28" viewBox="0 0 31 28" fill="none" xmlns="http://www.w3.org/2000/svg">
<path d="M15.2867 8.59381C15.2454 8.59381 15.2053 8.58848 15.1653 8.5778L0.649211 4.75922C0.439742 4.70452 0.292969 4.51373 0.292969 4.29757C0.292969 4.0801 0.439731 3.89064 0.649211 3.8346L15.1653 0.0160104C15.2454 -0.0053368 15.3281 -0.0053368 15.4081 0.0160104L29.9242 3.8346C30.1337 3.89063 30.2805 4.08009 30.2805 4.29757C30.2805 4.51371 30.1337 4.7045 29.9242 4.75922L15.4081 8.5778C15.3681 8.58848 15.3281 8.59381 15.2867 8.59381ZM2.64918 4.29774L15.2867 7.62124L27.9242 4.29774L15.2867 0.972902L2.64918 4.29774Z" fill="black"/>
<path d="M15.2874 27.3247C15.2528 27.3247 15.2181 27.3207 15.1847 27.314H15.1807L15.1674 27.31L0.651278 23.4915H0.64861C0.533868 23.4608 0.435138 23.3887 0.371096 23.29C0.352418 23.2606 0.337741 23.23 0.324399 23.1979C0.303052 23.1419 0.293712 23.0819 0.295047 23.0205V4.29781C0.295047 4.03364 0.508519 3.81885 0.772677 3.81885C1.03685 3.81885 1.25031 4.03365 1.25031 4.29781V22.6591L14.8097 26.2253V8.11503C14.8097 7.89755 14.9551 7.7081 15.1659 7.65338L29.682 3.8348C29.8248 3.79744 29.9782 3.82813 30.0956 3.91885C30.213 4.00958 30.2811 4.14967 30.2811 4.29777V23.0273C30.2811 23.2448 30.1356 23.4342 29.9248 23.4903L15.4087 27.3088C15.3807 27.3169 15.3514 27.3222 15.322 27.3249L15.2874 27.3247ZM15.7651 8.48455V26.2253L29.3258 22.6591V4.91837L15.7651 8.48455Z" fill="black"/>
<path d="M20.1333 14.5751C19.8691 14.5751 19.6543 14.3616 19.6543 14.0974V6.84076C19.6543 6.57659 19.8691 6.36313 20.1333 6.36313C20.3974 6.36313 20.6109 6.57661 20.6109 6.84076V13.4516L24.48 12.2668V5.57161C24.48 5.30744 24.6935 5.09265 24.9577 5.09265C25.2218 5.09265 25.4366 5.30746 25.4366 5.57161V12.6189C25.4366 12.8297 25.2992 13.0152 25.0977 13.0765L20.2746 14.5548C20.2279 14.5682 20.1813 14.5751 20.1333 14.5751Z" fill="black"/>
<path d="M15.2865 8.5938C15.045 8.5938 14.8422 8.41502 14.8116 8.17618C14.7809 7.93734 14.9316 7.7132 15.1651 7.65319L29.6812 3.83461C29.8053 3.79858 29.9387 3.81459 30.0508 3.8773C30.1629 3.94134 30.2443 4.04808 30.2776 4.17216C30.3096 4.29757 30.291 4.42966 30.2242 4.54039C30.1589 4.65113 30.0495 4.72985 29.924 4.75919L15.408 8.57778C15.3693 8.58845 15.3279 8.5938 15.2865 8.5938Z" fill="black"/>
<path d="M10.3757 21.7451C10.3343 21.7451 10.2943 21.7411 10.2542 21.7304L5.19514 20.3989L5.1938 20.3976C4.93897 20.3308 4.78687 20.0693 4.85358 19.8132C4.92029 19.5584 5.18313 19.4063 5.43795 19.473L10.4971 20.8045C10.7292 20.8659 10.88 21.09 10.8493 21.3288C10.8186 21.5677 10.6158 21.7451 10.3757 21.7451Z" fill="black"/>
<path d="M10.7399 18.6766C10.6999 18.6766 10.6585 18.6713 10.6185 18.6606L5.55939 17.3291C5.30322 17.261 5.15113 16.9995 5.21783 16.7447C5.28588 16.4885 5.54738 16.3364 5.8022 16.4031L10.8613 17.7347L10.8626 17.736C11.0948 17.7974 11.2456 18.0215 11.2149 18.259C11.1842 18.4978 10.9814 18.6766 10.7399 18.6766Z" fill="black"/>
</svg>
