<svg width="30" height="30" viewBox="0 0 30 30" fill="none" xmlns="http://www.w3.org/2000/svg">
<path d="M24.0904 21.8083C24.1963 21.8808 24.3265 21.9084 24.4527 21.8849C24.5788 21.8614 24.6904 21.7888 24.763 21.6831C26.1143 19.7163 26.8355 17.3852 26.831 14.999C26.831 8.4758 21.5241 3.16895 15.0009 3.16895C8.47775 3.16895 3.1709 8.4758 3.1709 14.999C3.1709 21.5222 8.47775 26.829 15.0009 26.829C17.8795 26.8303 20.6596 25.7807 22.8191 23.8774C22.8679 23.8357 22.9079 23.7847 22.9368 23.7274C22.9657 23.6701 22.983 23.6077 22.9875 23.5436C22.992 23.4796 22.9838 23.4153 22.9632 23.3545C22.9427 23.2937 22.9102 23.2376 22.8678 23.1895C22.8253 23.1413 22.7737 23.1021 22.716 23.0741C22.6582 23.0461 22.5955 23.0298 22.5314 23.0263C22.4673 23.0228 22.4032 23.0321 22.3427 23.0536C22.2822 23.0751 22.2266 23.1084 22.1792 23.1516C20.1963 24.899 17.6439 25.8625 15.0009 25.8613C9.01303 25.8613 4.13864 20.9869 4.13864 14.999C4.13864 9.01108 9.01303 4.13669 15.0009 4.13669C20.9888 4.13669 25.8632 9.01108 25.8632 14.999C25.8675 17.1897 25.2055 19.3299 23.9652 21.1357C23.8927 21.2415 23.8651 21.3718 23.8886 21.4979C23.9121 21.624 23.9847 21.7356 24.0904 21.8083Z" fill="black"/>
<path d="M19.7341 10.1821C19.8624 10.1837 19.9862 10.1342 20.078 10.0446C20.1699 9.95503 20.2224 9.83259 20.224 9.70426C20.2256 9.57593 20.1762 9.45222 20.0866 9.36034C19.997 9.26846 19.8745 9.21594 19.7462 9.21434L14.0565 9.06736L11.7756 9.00688C11.7121 9.00521 11.6489 9.01608 11.5895 9.03885C11.5302 9.06163 11.4759 9.09587 11.4298 9.13962C11.3837 9.18337 11.3466 9.23578 11.3208 9.29385C11.2949 9.35192 11.2807 9.41451 11.2791 9.47805C11.2774 9.54159 11.2883 9.60484 11.311 9.66419C11.3338 9.72353 11.3681 9.77781 11.4118 9.82392C11.4556 9.87003 11.508 9.90707 11.566 9.93293C11.6241 9.95879 11.6867 9.97295 11.7502 9.97462L14.0311 10.0351C15.493 10.0726 16.6803 11.2236 16.8678 12.6897L11.6886 12.5561C11.5602 12.5528 11.4358 12.6006 11.3428 12.689C11.2497 12.7774 11.1956 12.8992 11.1923 13.0275C11.189 13.1559 11.2368 13.2803 11.3252 13.3733C11.4137 13.4664 11.5354 13.5205 11.6638 13.5238L16.8454 13.6575C16.7328 14.3087 16.4134 14.9064 15.9345 15.3619C15.6625 15.6244 15.3411 15.8302 14.9889 15.9673C14.6367 16.1045 14.2608 16.1703 13.8829 16.1609L11.6021 16.1004C11.5059 16.0979 11.4112 16.1241 11.33 16.1756C11.2488 16.2272 11.1848 16.3017 11.1462 16.3898C11.1076 16.4779 11.0961 16.5755 11.1132 16.6701C11.1303 16.7648 11.1752 16.8522 11.2422 16.9212L16.8067 22.6563C16.8506 22.7034 16.9034 22.7413 16.9621 22.7677C17.0208 22.7942 17.0842 22.8087 17.1486 22.8103C17.2129 22.8119 17.277 22.8007 17.337 22.7773C17.3969 22.7538 17.4516 22.7187 17.4978 22.6738C17.544 22.629 17.5808 22.5754 17.6061 22.5161C17.6313 22.4569 17.6444 22.3932 17.6447 22.3288C17.645 22.2644 17.6325 22.2006 17.6078 22.1412C17.5831 22.0817 17.5468 22.0277 17.501 21.9825L12.7621 17.102L13.8575 17.1305C14.3625 17.1431 14.865 17.0555 15.3359 16.8727C15.8069 16.6898 16.2369 16.4154 16.601 16.0653C17.266 15.4326 17.6958 14.5924 17.8198 13.6829L19.6343 13.7295H19.647C19.7753 13.7311 19.8991 13.6816 19.9909 13.592C20.0828 13.5024 20.1353 13.38 20.1369 13.2516C20.1385 13.1233 20.0891 12.9996 19.9995 12.9077C19.9099 12.8158 19.7874 12.7633 19.6591 12.7617L17.8446 12.7145C17.7548 11.7152 17.2993 10.7841 16.5654 10.0998L19.7214 10.1815L19.7341 10.1821Z" fill="black"/>
<path d="M25.6069 4.39259C23.5671 2.35463 20.9837 0.947009 18.1654 0.337907C15.347 -0.271195 12.4129 -0.0560255 9.71356 0.957709C9.65399 0.980108 9.59941 1.01402 9.55295 1.05751C9.50648 1.101 9.46904 1.15322 9.44275 1.21118C9.41647 1.26914 9.40186 1.33171 9.39975 1.39532C9.39765 1.45893 9.4081 1.52233 9.4305 1.5819C9.45289 1.64147 9.48681 1.69605 9.5303 1.74251C9.57379 1.78898 9.62601 1.82642 9.68397 1.85271C9.74193 1.87899 9.8045 1.89361 9.86811 1.89571C9.93172 1.89781 9.99512 1.88737 10.0547 1.86497C13.3517 0.620276 16.9961 0.660269 20.2651 1.97701C23.534 3.29376 26.1886 5.79106 27.7023 8.97356C29.2161 12.1561 29.4783 15.7913 28.4371 19.1581C27.3959 22.5249 25.1273 25.3774 22.0812 27.1498C19.0352 28.9221 15.4342 29.4848 11.9927 28.7263C8.55109 27.9678 5.52034 25.9434 3.50157 23.0548C1.48281 20.1662 0.6235 16.6243 1.09411 13.1317C1.56471 9.63907 3.33085 6.45093 6.04219 4.19964C6.14116 4.11767 6.20352 3.99974 6.21555 3.87179C6.22757 3.74384 6.18827 3.61636 6.1063 3.51739C6.02433 3.41841 5.9064 3.35605 5.77845 3.34403C5.6505 3.33201 5.52302 3.3713 5.42404 3.45327C3.09482 5.38514 1.40437 7.97633 0.574732 10.8865C-0.254904 13.7967 -0.184929 16.8897 0.775468 19.7594C1.73586 22.6291 3.54177 25.1412 5.95598 26.9657C8.37019 28.7903 11.2798 29.842 14.3026 29.9827C17.3255 30.1233 20.3202 29.3464 22.8934 27.754C25.4667 26.1616 27.4981 23.8281 28.7209 21.06C29.9437 18.2919 30.3006 15.2187 29.7449 12.2441C29.1891 9.26944 27.7466 6.53244 25.6069 4.39259Z" fill="black"/>
</svg>
