<svg width="30" height="23" viewBox="0 0 30 23" fill="none" xmlns="http://www.w3.org/2000/svg">
<path fill-rule="evenodd" clip-rule="evenodd" d="M10.5275 3.78499V11.8944C10.5275 12.1853 10.312 12.4198 10.0449 12.4198C9.77785 12.4198 9.56242 12.1853 9.56242 11.8944V3.78499C9.56242 3.49417 9.77934 3.2596 10.0449 3.2596C10.3106 3.25799 10.5275 3.49419 10.5275 3.78499ZM13.8639 3.78499V11.8944C13.8639 12.1853 13.647 12.4198 13.3814 12.4198C13.1143 12.4198 12.8989 12.1853 12.8989 11.8944V3.78499C12.8989 3.49417 13.1143 3.2596 13.3814 3.2596C13.647 3.25799 13.8639 3.49419 13.8639 3.78499ZM17.1989 3.78499V11.8944C17.1989 12.1853 16.9819 12.4198 16.7163 12.4198C16.4492 12.4198 16.2338 12.1853 16.2338 11.8944V3.78499C16.2338 3.49417 16.4507 3.2596 16.7163 3.2596C16.9834 3.25799 17.1989 3.49419 17.1989 3.78499ZM4.08015 11.4909H2.44513C2.17804 11.4909 1.96261 11.2547 1.96261 10.9655C1.96261 10.6747 2.17953 10.4401 2.44513 10.4401H4.08015C4.34724 10.4401 4.56267 10.6763 4.56267 10.9655C4.56267 11.2547 4.34575 11.4909 4.08015 11.4909ZM4.08015 7.30026H1.30001C1.03292 7.30026 0.817488 7.06406 0.817488 6.77486C0.817488 6.48403 1.03441 6.24946 1.30001 6.24946H4.08015C4.34724 6.24946 4.56267 6.48405 4.56267 6.77486C4.56267 7.06567 4.34575 7.30026 4.08015 7.30026ZM4.08015 3.11287H0.482522C0.215429 3.11287 0 2.87668 0 2.58748C0 2.29826 0.215444 2.06208 0.482522 2.06208H4.08015C4.34724 2.06208 4.56267 2.29828 4.56267 2.58748C4.56267 2.87669 4.34575 3.11287 4.08015 3.11287ZM29.0351 19.073V15.3566C29.0351 15.0882 28.8344 14.8681 28.5865 14.8681C28.4138 14.8681 28.2544 14.7685 28.1688 14.6046L25.0331 8.69167C24.949 8.5326 24.8147 8.44744 24.645 8.44744H21.3026V14.3427C21.3026 14.6335 21.0857 14.8681 20.8201 14.8681L5.32145 14.8697C5.07502 14.8697 4.87285 15.0882 4.87285 15.3581V19.0746C4.87285 19.3446 5.07354 19.5631 5.32145 19.5631H6.93433C7.15715 18.4062 8.10155 17.5353 9.22896 17.5353C10.3564 17.5353 11.3008 18.4062 11.5236 19.5631H21.0388C21.2631 18.4062 22.206 17.5353 23.3334 17.5353C24.4608 17.5353 25.4052 18.4062 25.6281 19.5631H28.5867C28.8346 19.5615 29.0351 19.343 29.0351 19.073ZM23.333 21.5893C22.5731 21.5893 21.9533 20.916 21.9533 20.0869C21.9533 19.2595 22.5731 18.5862 23.333 18.5862C24.093 18.5862 24.7113 19.2595 24.7113 20.0869C24.7113 20.916 24.093 21.5893 23.333 21.5893ZM9.22722 21.5893C8.46727 21.5893 7.84898 20.916 7.84898 20.0869C7.84898 19.2595 8.46727 18.5862 9.22722 18.5862C9.98718 18.5862 10.6055 19.2595 10.6055 20.0869C10.6069 20.916 9.98865 21.5893 9.22722 21.5893ZM6.42495 2.17923V13.8171H20.3358V2.17923C20.3358 1.9109 20.1352 1.69077 19.8872 1.69077H6.87204C6.6256 1.69077 6.42495 1.90929 6.42495 2.17923ZM28.8828 13.8508L25.868 8.1662C25.6128 7.68415 25.1553 7.39655 24.6432 7.39655H21.3009L21.3024 2.17919C21.3024 1.33081 20.6678 0.639893 19.8887 0.639893H6.87196C6.09282 0.639893 5.45828 1.33081 5.45828 2.17919V13.8171H5.32105C4.5419 13.8171 3.90737 14.508 3.90737 15.3564V19.0728C3.90737 19.9212 4.5419 20.6121 5.32105 20.6121H6.93392C7.15675 21.769 8.10115 22.6399 9.22856 22.6399C10.356 22.6399 11.3004 21.769 11.5232 20.6121H21.0384C21.2627 21.769 22.2056 22.6399 23.333 22.6399C24.4604 22.6399 25.4048 21.769 25.6276 20.6121H28.5863C29.3655 20.6121 30 19.9212 30 19.0728V15.3564C30 14.6188 29.5218 14.0003 28.8828 13.8508Z" fill="black"/>
</svg>
