<svg width="34" height="41" viewBox="0 0 34 41" fill="none" xmlns="http://www.w3.org/2000/svg">
<path d="M32.1356 38.7351L30.3129 11.2249H24.3995V13.2342C24.3995 13.6873 24.0326 14.0542 23.5782 14.0542C23.1251 14.0542 22.7583 13.6873 22.7583 13.2342V11.2249H11.6432V13.2342C11.6432 13.6873 11.2764 14.0542 10.822 14.0542C10.3689 14.0542 10.002 13.6873 10.002 13.2342V11.2249H4.0886L2.26592 38.7351H32.1369H32.1356ZM10.0008 9.58369V7.57436C10.0008 5.59334 10.8104 3.79383 12.1143 2.48988C13.4183 1.18594 15.2191 0.375 17.1988 0.375C19.1798 0.375 20.9793 1.18465 22.2833 2.48988C23.5872 3.79383 24.3982 5.59463 24.3982 7.57436V9.58369H31.0788V9.58498C31.5074 9.58498 31.8691 9.91836 31.8962 10.3522L33.8244 39.4469C33.8296 39.483 33.8321 39.519 33.8321 39.5538C33.8321 40.0069 33.4653 40.375 33.0109 40.375H1.38933V40.3737L1.33784 40.3724C0.886029 40.3441 0.543631 39.9554 0.57195 39.5036L2.50019 10.4024C2.50147 9.94926 2.86833 9.58369 3.32014 9.58369H10.0008ZM22.757 9.58369V7.57436C22.757 6.04644 22.1314 4.65754 21.1235 3.64966C20.1156 2.64177 18.7267 2.01619 17.1988 2.01619C15.6709 2.01619 14.282 2.64177 13.2741 3.64966C12.2662 4.65754 11.6407 6.04644 11.6407 7.57436V9.58369H22.7557H22.757ZM8.73285 35.5261C8.27975 35.5261 7.91161 35.1592 7.91161 34.7048C7.91161 34.2518 8.27975 33.8849 8.73285 33.8849H25.6674C26.1205 33.8849 26.4873 34.2518 26.4873 34.7048C26.4873 35.1579 26.1205 35.5261 25.6674 35.5261H8.73285Z" fill="black"/>
</svg>
