<svg width="30" height="28" viewBox="0 0 30 28" fill="none" xmlns="http://www.w3.org/2000/svg">
<path d="M4.11456 1.80361C3.99218 1.85847 3.87261 1.88801 3.74037 1.89926C3.44497 1.92599 3.1355 1.89926 2.8373 1.90208L1.56425 1.90489C1.30683 1.90489 1.02128 1.92599 0.766688 1.87676C0.517707 1.82612 0.298262 1.68967 0.159009 1.47585C0.016936 1.25782 -0.0351102 0.993381 0.0239689 0.73875C0.0788275 0.496801 0.220904 0.282999 0.431897 0.150768C0.551463 0.0762156 0.683691 0.0326103 0.822937 0.0157286C0.976263 -0.00396456 1.13803 0.00588225 1.29417 0.00588225L2.08331 0.00869524L3.09189 0.00588225C3.3465 0.00588225 3.62924 -0.0208445 3.87963 0.0396422C4.10751 0.0945008 4.29317 0.270333 4.41276 0.46446C4.74192 0.49822 5.04435 0.579805 5.32711 0.755638C5.3679 0.782365 5.4087 0.810497 5.44949 0.84004C5.49028 0.868173 5.52826 0.900527 5.56483 0.931474C5.60281 0.962421 5.63939 0.996182 5.67596 1.02994C5.71253 1.0637 5.74489 1.09887 5.77865 1.13544C5.81241 1.17201 5.84336 1.21 5.87289 1.24798C5.90384 1.28596 5.93338 1.32675 5.9587 1.36754C5.98543 1.40833 6.01215 1.44913 6.03747 1.49274C6.06139 1.53634 6.0853 1.57854 6.1064 1.62215C6.26254 1.94428 6.31318 2.31143 6.38492 2.65746C6.46229 3.03726 6.53684 3.41566 6.60999 3.79827C6.66063 4.05991 6.70142 4.32154 6.76191 4.58039H21.6444L26.4172 4.5832C26.8758 4.5832 27.3372 4.59586 27.7958 4.59305C28.1291 4.59023 28.4724 4.57195 28.8071 4.59586C29.0322 4.61274 29.2446 4.68026 29.4317 4.80686C29.7707 5.03474 29.9241 5.3597 30 5.74793V5.95893C29.9325 6.18962 29.9043 6.44424 29.8579 6.68195C29.7566 7.2193 29.6582 7.75806 29.5668 8.29821L28.9324 11.8135C28.8789 12.1117 28.8128 12.4043 28.7621 12.7011L28.2839 15.3807C28.2164 15.7479 28.1784 16.1319 28.0898 16.492C28.056 16.6284 28.004 16.7494 27.9224 16.8648C27.7761 17.0716 27.5581 17.2376 27.3133 17.3037C27.0995 17.3642 26.8716 17.3825 26.6508 17.4148C26.2907 17.4683 25.9306 17.5175 25.5676 17.5667L22.5954 17.9817L13.7403 19.1942L11.8273 19.4587C11.2266 19.5375 10.6246 19.6078 10.0296 19.7077C9.79465 19.9116 9.57521 20.1297 9.35015 20.3435C9.01817 20.6557 8.68762 20.968 8.37253 21.2986C9.11384 21.2817 9.85797 21.2887 10.6007 21.2887L13.2818 21.2859L21.1422 21.2887C22.2183 21.2958 23.293 21.2915 24.3691 21.2719C24.8825 21.262 25.3959 21.2578 25.9107 21.2592C26.1724 21.2592 26.4382 21.2451 26.6985 21.2634C26.8912 21.2761 27.0755 21.3281 27.2218 21.4603C27.3709 21.5954 27.4496 21.7867 27.4524 21.9864V22.023C27.4524 22.0357 27.4496 22.0469 27.4496 22.0596C27.4496 22.0722 27.4468 22.0835 27.4454 22.0961C27.4426 22.1088 27.4426 22.1201 27.4412 22.1327C27.4384 22.1454 27.437 22.1566 27.4342 22.1665C27.4313 22.1791 27.4299 22.1904 27.4243 22.2002C27.4215 22.2129 27.4173 22.2213 27.4116 22.234C27.4074 22.2467 27.4046 22.2551 27.399 22.2678C27.3948 22.2804 27.3891 22.2889 27.3849 22.2987C27.3807 22.3085 27.3751 22.3198 27.368 22.3296C27.3638 22.3395 27.3554 22.3507 27.3512 22.3606C27.3469 22.3704 27.3385 22.3803 27.3315 22.3915C27.3244 22.4014 27.3188 22.4112 27.3118 22.4197C27.3047 22.4295 27.2977 22.4394 27.2907 22.4478C27.2836 22.4577 27.2766 22.4675 27.2668 22.4745C27.2597 22.4844 27.2499 22.4914 27.2428 22.5013C27.157 22.5899 27.0459 22.6504 26.9263 22.6785C26.6858 22.739 26.4129 22.7193 26.1653 22.7193L25.1793 22.7263C25.5267 22.9162 25.839 23.2046 26.0598 23.531C26.3988 24.0331 26.5395 24.7238 26.4199 25.3174C26.4157 25.3371 26.4129 25.3554 26.4073 25.3751C26.4031 25.3948 26.3974 25.4131 26.3932 25.4328C26.389 25.4524 26.3834 25.4707 26.3763 25.4904C26.3721 25.5101 26.3637 25.5284 26.3594 25.5481C26.3552 25.5678 26.3468 25.5861 26.3398 25.6058C26.3327 25.6255 26.3271 25.6438 26.3201 25.6635C26.313 25.6831 26.306 25.7014 26.299 25.7183C26.2919 25.738 26.2849 25.7563 26.2779 25.7732C26.2708 25.7929 26.261 25.8097 26.2539 25.828C26.2469 25.8477 26.2371 25.8646 26.2272 25.8829C26.2174 25.9026 26.2103 25.9195 26.2005 25.9363C26.1906 25.9532 26.1808 25.9729 26.1724 25.9898C26.1625 26.0067 26.1527 26.0264 26.1442 26.0432C26.1344 26.0601 26.1245 26.077 26.1133 26.0967C26.1034 26.1136 26.0922 26.1305 26.0823 26.1473C26.0725 26.1642 26.0612 26.1811 26.0486 26.198C26.0359 26.2149 26.0275 26.2317 26.0148 26.2486C26.0022 26.2655 25.9909 26.2824 25.9782 26.2964C25.9656 26.3133 25.9543 26.3274 25.9417 26.3443C25.929 26.3611 25.9178 26.3752 25.9037 26.3921C25.891 26.4062 25.877 26.423 25.8657 26.4371C25.853 26.4512 25.839 26.4681 25.8249 26.4821C25.8108 26.4962 25.7982 26.5103 25.7841 26.5257C25.7701 26.5398 25.756 26.5539 25.7405 26.5693C25.7264 26.5834 25.7124 26.5975 25.6969 26.6101C25.6828 26.6242 25.6688 26.6368 25.6533 26.6509C25.6392 26.665 25.6252 26.6776 25.6083 26.6917C25.5942 26.7044 25.5773 26.7184 25.5633 26.7297C25.5492 26.7423 25.5323 26.7564 25.5155 26.7677C25.4986 26.7803 25.4845 26.7916 25.4676 26.8042C25.4507 26.8169 25.4367 26.8282 25.4198 26.8408C25.4029 26.8535 25.386 26.8647 25.3692 26.8746C25.3523 26.8872 25.3354 26.8957 25.3157 26.9083C25.2988 26.921 25.2791 26.9294 25.2623 26.9393C25.2454 26.9491 25.2257 26.9604 25.2088 26.9702C25.1919 26.9801 25.1722 26.9899 25.1539 26.9984C25.1342 27.0082 25.1174 27.0181 25.0991 27.0265C25.0794 27.0363 25.0625 27.0462 25.0442 27.0532C25.0245 27.0631 25.0062 27.0701 24.9865 27.0799C24.9669 27.087 24.9486 27.0968 24.9289 27.1039C24.9092 27.1109 24.8909 27.1179 24.8712 27.125C24.8515 27.132 24.8332 27.139 24.8135 27.1461C24.7938 27.1531 24.7755 27.1601 24.7559 27.1658C24.7362 27.1728 24.7179 27.1784 24.6954 27.1854C24.6757 27.1897 24.6546 27.1981 24.6349 27.2023C24.6152 27.2065 24.5941 27.2122 24.5744 27.2164C24.5547 27.2206 24.5336 27.2262 24.5139 27.2305C24.4942 27.2347 24.4731 27.2403 24.4534 27.2431C24.4337 27.2473 24.4126 27.2502 24.3929 27.2558C24.3732 27.2586 24.3521 27.2628 24.331 27.2656C24.3099 27.2684 24.2902 27.2698 24.2691 27.2727C24.248 27.2755 24.2283 27.2769 24.2072 27.2797C24.1861 27.2825 24.1665 27.2825 24.1454 27.2839C24.1243 27.2867 24.1046 27.2867 24.0835 27.2867C24.0624 27.2867 24.0427 27.2895 24.0216 27.2895H23.9597C23.9386 27.2895 23.9189 27.2895 23.8978 27.2867C23.8767 27.2867 23.857 27.2839 23.8359 27.2839C23.8148 27.2811 23.7951 27.2811 23.774 27.2797C23.7529 27.2769 23.7332 27.2755 23.7121 27.2755C23.691 27.2727 23.6713 27.2713 23.6502 27.2684C23.6291 27.2656 23.6094 27.2642 23.5883 27.2586C23.5672 27.2558 23.5475 27.2516 23.5278 27.2487C23.5081 27.2445 23.487 27.2417 23.4673 27.2361C23.4476 27.2319 23.4265 27.2262 23.4069 27.222C23.3872 27.2178 23.3689 27.2122 23.3464 27.208C23.3267 27.2037 23.3084 27.1953 23.2887 27.1911C23.269 27.1869 23.2507 27.1784 23.231 27.1714C23.2113 27.1643 23.193 27.1587 23.1733 27.1517C23.1536 27.1447 23.1354 27.1376 23.1157 27.1306C23.096 27.1236 23.0777 27.1165 23.058 27.1095C23.0383 27.1025 23.02 27.0954 23.0031 27.0856C22.9834 27.0785 22.9666 27.0687 22.9483 27.0617C22.9286 27.0518 22.9117 27.0448 22.8934 27.0349C22.8737 27.0251 22.8568 27.0152 22.8386 27.0068C22.8217 26.997 22.802 26.9871 22.7851 26.9787C22.7682 26.9688 22.7485 26.959 22.7317 26.9477C22.7148 26.9379 22.6951 26.9266 22.6782 26.9168C22.6613 26.9069 22.6444 26.8957 22.6276 26.883C22.6107 26.8704 22.5938 26.8619 22.5769 26.8493C22.56 26.8366 22.5432 26.8253 22.5263 26.8127C22.5094 26.8 22.4925 26.7888 22.4785 26.7761C22.4616 26.7634 22.4475 26.7522 22.4306 26.7381C22.4138 26.7255 22.3997 26.7114 22.3828 26.7001C22.3687 26.6875 22.3519 26.6734 22.3378 26.6594C22.3237 26.6453 22.3068 26.6326 22.2928 26.6186C22.2787 26.6045 22.2646 26.5904 22.2492 26.575C22.2351 26.5609 22.221 26.5468 22.2056 26.5314C22.1915 26.5173 22.1774 26.5032 22.1648 26.4863C22.1507 26.4723 22.1381 26.4554 22.124 26.4413C22.1099 26.4273 22.0973 26.4104 22.086 26.3963C22.0733 26.3794 22.0593 26.3654 22.048 26.3485C22.0354 26.3316 22.0241 26.3175 22.01 26.3007C21.9974 26.2838 21.9861 26.2669 21.9735 26.25C21.9608 26.2331 21.9496 26.2163 21.9369 26.1994C21.9242 26.1825 21.9158 26.1656 21.9031 26.1487C21.5627 25.6184 21.4614 24.9081 21.5979 24.2948C21.7512 23.6182 22.1648 23.0991 22.7429 22.732C21.4009 22.746 20.059 22.7489 18.7169 22.739L11.5119 22.7517C11.8439 22.9725 12.1238 23.2243 12.3376 23.5661C12.3475 23.583 12.3573 23.5999 12.3686 23.6168C12.3784 23.6336 12.3883 23.6505 12.3967 23.6702C12.4066 23.6871 12.4164 23.7068 12.4249 23.7237C12.4347 23.7406 12.4417 23.7603 12.4516 23.7771C12.4614 23.794 12.4685 23.8137 12.4755 23.8306C12.4825 23.8503 12.4924 23.8672 12.4994 23.8854C12.5064 23.9051 12.5135 23.922 12.5205 23.9403C12.5275 23.96 12.5346 23.9769 12.5416 23.9952C12.5486 24.0149 12.5557 24.0331 12.5613 24.05C12.5683 24.0697 12.574 24.088 12.581 24.1077C12.5852 24.1274 12.5937 24.1457 12.5979 24.1654C12.6021 24.1851 12.6077 24.2034 12.6119 24.223C12.6162 24.2427 12.6218 24.261 12.626 24.2807C12.6302 24.3004 12.6359 24.3187 12.6387 24.3384C12.6429 24.3581 12.6457 24.3764 12.6513 24.3961C12.6541 24.4158 12.6584 24.434 12.6612 24.4537C12.664 24.4734 12.6654 24.4917 12.6682 24.5114C12.671 24.5311 12.6724 24.5494 12.6752 24.5719C12.6781 24.5916 12.6795 24.6099 12.6795 24.6324C12.6823 24.6521 12.6823 24.6704 12.6837 24.6929C12.6837 24.7126 12.6865 24.7309 12.6865 24.7534V24.8139V24.8743C12.6865 24.894 12.6865 24.9123 12.6837 24.9348C12.6837 24.9545 12.6809 24.9728 12.6809 24.9953C12.6781 25.015 12.6781 25.0333 12.6767 25.0558C12.6738 25.0755 12.6724 25.0938 12.6696 25.1163C12.6668 25.136 12.6654 25.1543 12.6626 25.174C12.6598 25.1937 12.6556 25.2119 12.6527 25.2316C12.6499 25.2513 12.6457 25.2696 12.6401 25.2893C12.6359 25.309 12.633 25.3273 12.6274 25.347C12.6232 25.3667 12.6176 25.385 12.6134 25.4047C12.4544 26.0672 12.0451 26.6102 11.4641 26.9646C10.893 27.3121 10.2305 27.4063 9.58198 27.2432C9.56229 27.2389 9.544 27.2333 9.52431 27.2291C9.50461 27.2249 9.48633 27.2192 9.46663 27.2122C9.44694 27.208 9.42865 27.1996 9.40896 27.1953C9.38926 27.1883 9.37098 27.1827 9.35128 27.1756C9.33159 27.1686 9.3133 27.1616 9.29642 27.1545C9.27673 27.1475 9.25985 27.1405 9.24156 27.1334C9.22187 27.1264 9.20499 27.1194 9.18671 27.1095C9.16701 27.1025 9.15013 27.0926 9.13185 27.0856C9.11497 27.0758 9.09527 27.0687 9.07839 27.0589C9.06151 27.049 9.04182 27.0392 9.02494 27.0322C9.00806 27.0223 8.98837 27.0125 8.97148 27.004C8.95461 26.9942 8.93772 26.9843 8.92085 26.9759C8.90397 26.966 8.88709 26.9548 8.87021 26.9449C8.85333 26.9351 8.83645 26.9238 8.81957 26.9112C8.80269 26.8985 8.78581 26.8901 8.77174 26.8774C8.75486 26.8648 8.7408 26.8535 8.72392 26.8409C8.70704 26.8282 8.69297 26.8169 8.67609 26.8043C8.65921 26.7916 8.64515 26.7804 8.63108 26.7663C8.61701 26.7536 8.60013 26.7396 8.58607 26.7283C8.572 26.7157 8.55793 26.7016 8.54105 26.6903C8.52699 26.6763 8.51292 26.6636 8.49745 26.6495C8.48338 26.6355 8.46931 26.6214 8.45384 26.6088C8.43978 26.5947 8.42571 26.5806 8.41305 26.5651C8.39898 26.5511 8.38632 26.537 8.37226 26.5215C8.35819 26.5075 8.34553 26.4934 8.33428 26.4765C8.32162 26.4625 8.30755 26.4456 8.2963 26.4315C8.28364 26.4175 8.27238 26.4006 8.25972 26.3865C8.24706 26.3696 8.23581 26.3556 8.22315 26.3387C8.21049 26.3218 8.19924 26.3077 8.18939 26.2909C8.17673 26.274 8.16829 26.2571 8.15563 26.2402C8.14297 26.2233 8.13453 26.2065 8.12468 26.1896C8.11484 26.1727 8.10358 26.1558 8.09374 26.1389C7.7702 25.5918 7.65484 24.8955 7.81803 24.2765C7.82225 24.2568 7.82788 24.2385 7.83491 24.216C7.83913 24.1963 7.84757 24.178 7.85179 24.1583C7.85601 24.1387 7.86445 24.1204 7.87149 24.1007C7.87852 24.081 7.88415 24.0627 7.89118 24.043C7.89821 24.0233 7.90525 24.005 7.91228 23.9853C7.91931 23.9656 7.92635 23.9473 7.93619 23.9276C7.94323 23.908 7.95307 23.8897 7.96011 23.8728C7.96714 23.8531 7.97699 23.8362 7.98683 23.8179C7.99668 23.7982 8.00371 23.7814 8.01356 23.7631C8.02341 23.7434 8.03325 23.7265 8.04169 23.7082C8.05154 23.6913 8.06139 23.6716 8.06983 23.6548C8.07967 23.6379 8.08952 23.6182 8.10077 23.6013C8.11062 23.5844 8.12187 23.5675 8.13172 23.5478C8.14438 23.531 8.15282 23.5141 8.16548 23.4972C8.17814 23.4803 8.18939 23.4635 8.19924 23.4466C8.2119 23.4297 8.22315 23.4128 8.23581 23.3959C8.24847 23.3791 8.25973 23.365 8.27238 23.3481C8.28504 23.3312 8.29911 23.3172 8.31036 23.3003C8.32303 23.2834 8.33709 23.2693 8.34834 23.2553C8.36241 23.2412 8.37507 23.2243 8.38914 23.2103C8.4032 23.1962 8.41727 23.1821 8.42993 23.1652C8.444 23.1512 8.45806 23.1371 8.47354 23.1216L8.51714 23.078C8.53121 23.064 8.54527 23.0499 8.56215 23.0372C8.57622 23.0232 8.5931 23.0105 8.60717 22.9964C8.62123 22.9838 8.63811 22.9697 8.65499 22.9585C8.67187 22.9458 8.68594 22.9317 8.70282 22.9205C8.7197 22.9078 8.73377 22.8966 8.75064 22.8839C8.76752 22.8713 8.78441 22.86 8.80128 22.8473C8.81816 22.8347 8.83504 22.8234 8.85192 22.8136C8.8688 22.8009 8.88568 22.7925 8.90256 22.7798C8.91944 22.77 8.93632 22.7587 8.95602 22.7489C8.61279 22.7418 8.26252 22.7728 7.92071 22.7447C7.89961 22.7418 7.87711 22.7404 7.85882 22.7376C7.83772 22.7348 7.81521 22.7306 7.79692 22.7278C7.77582 22.7236 7.75613 22.7207 7.73503 22.7151C7.71393 22.7109 7.69423 22.7053 7.67313 22.6982C7.65203 22.694 7.63234 22.6856 7.61264 22.6785C7.59295 22.6715 7.57185 22.6645 7.55216 22.6574C7.53246 22.6504 7.51418 22.6406 7.49448 22.6335C7.47479 22.6237 7.4565 22.6138 7.43681 22.6054C7.41711 22.5955 7.39883 22.5857 7.38195 22.5744C7.36507 22.5618 7.34538 22.5533 7.32709 22.5407C7.31021 22.528 7.29052 22.5168 7.27364 22.5041C7.25676 22.4915 7.23988 22.4774 7.223 22.4661C7.20612 22.4521 7.18924 22.4394 7.17517 22.4253C7.15829 22.4113 7.14423 22.3972 7.13016 22.3817L7.08515 22.3367C7.07108 22.3227 7.05701 22.3058 7.04154 22.2889C6.83757 22.0441 6.73911 21.6953 6.77005 21.3788C6.77287 21.3521 6.77427 21.3282 6.7799 21.3014C6.78412 21.2747 6.78975 21.2508 6.79397 21.2269C6.79819 21.203 6.80663 21.1762 6.81366 21.1523C6.82069 21.1284 6.82773 21.1045 6.83757 21.0778C6.84461 21.0539 6.85445 21.03 6.8643 21.006C6.87415 20.9821 6.88399 20.9582 6.89525 20.9371C6.90791 20.9132 6.91916 20.8921 6.93182 20.8696C6.94448 20.8485 6.95855 20.826 6.9698 20.8049C7.14001 20.5432 7.41853 20.3336 7.6464 20.1227C7.88413 19.9046 8.11483 19.681 8.36381 19.4714C8.26956 19.3349 8.17109 19.1929 8.12608 19.0325C8.03464 18.7132 7.99385 18.3671 7.92493 18.0408C7.69142 16.9605 7.4973 15.8731 7.28351 14.7871L5.39716 5.03763L5.068 3.30462C5.01455 3.0261 4.9625 2.55628 4.8345 2.31573C4.6882 2.02596 4.39732 1.89364 4.11456 1.80361Z" fill="#EC3237"/>
</svg>
