<svg width="41" height="40" viewBox="0 0 41 40" fill="none" xmlns="http://www.w3.org/2000/svg">
<path fill-rule="evenodd" clip-rule="evenodd" d="M15.7442 0C7.0526 0 0 7.06855 0 15.7587C0 24.4532 7.05298 31.5174 15.7442 31.5174C19.9599 31.5174 23.8062 29.8592 26.6362 27.1576L39.1939 39.7153C39.279 39.8039 39.3809 39.8747 39.4936 39.9235C39.6063 39.9724 39.7276 39.9984 39.8505 39.9999C39.9733 40.0015 40.0953 39.9786 40.2092 39.9326C40.3231 39.8866 40.4268 39.8185 40.5141 39.7321C40.6014 39.6457 40.6708 39.5428 40.718 39.4294C40.7652 39.316 40.7894 39.1943 40.7892 39.0715C40.789 38.9486 40.7644 38.827 40.7168 38.7138C40.6692 38.6005 40.5995 38.4979 40.5119 38.4118L27.8818 25.7961C30.1469 23.0669 31.5173 19.5771 31.5173 15.7587C31.5173 7.06856 24.4402 0 15.7442 0ZM15.7442 1.85396C23.4384 1.85396 29.6634 8.07047 29.6634 15.7587C29.6634 23.4518 23.4387 29.6634 15.7442 29.6634C8.05453 29.6634 1.85396 23.4518 1.85396 15.7587C1.85396 8.07047 8.05495 1.85396 15.7442 1.85396Z" fill="black"/>
</svg>
